<?xml version="1.0" standalone="no"?>
<!DOCTYPE svg PUBLIC "-//W3C//DTD SVG 20010904//EN"
 "http://www.w3.org/TR/2001/REC-SVG-20010904/DTD/svg10.dtd">
<svg version="1.0" xmlns="http://www.w3.org/2000/svg"
 width="512.000000pt" height="512.000000pt" viewBox="0 0 512.000000 512.000000"
 preserveAspectRatio="xMidYMid meet">
<metadata>
Created by potrace 1.16, written by Peter Selinger 2001-2019
</metadata>
<g transform="translate(0.000000,512.000000) scale(0.100000,-0.100000)"
fill="#000000" stroke="none">
<path d="M2290 5105 c-771 -98 -1415 -489 -1846 -1120 -201 -295 -345 -668
-406 -1050 -30 -186 -32 -539 -5 -715 117 -752 491 -1351 1112 -1781 211 -146
522 -285 795 -354 209 -54 497 -89 670 -82 438 16 805 116 1195 325 317 170
659 481 868 789 218 324 344 635 419 1041 19 103 22 152 22 402 0 254 -2 299
-22 410 -73 399 -224 766 -438 1067 -24 34 -50 67 -57 75 -7 7 -19 22 -27 34
-60 86 -240 273 -363 376 -359 303 -806 501 -1292 574 -146 22 -483 27 -625 9z
m436 -25 c190 -13 373 -43 519 -86 66 -19 129 -39 140 -44 11 -5 55 -23 98
-40 42 -18 77 -36 77 -40 0 -4 -9 -6 -20 -3 -11 3 -20 9 -20 12 0 9 -114 31
-157 31 -17 0 -43 7 -60 15 -25 12 -68 14 -259 9 -336 -8 -342 -8 -424 -28
-106 -25 -109 -27 -85 -36 11 -4 30 -2 43 3 18 8 25 8 32 -3 9 -15 41 -16 142
-5 53 6 72 4 90 -7 17 -11 47 -15 108 -13 47 1 90 -2 95 -6 9 -6 186 -29 253
-33 12 0 22 -3 22 -6 0 -5 8 -6 101 -14 30 -3 68 -10 83 -16 15 -5 44 -7 65
-4 27 4 42 2 53 -9 9 -9 24 -16 34 -16 11 0 48 -3 84 -7 50 -6 59 -9 40 -15
-25 -7 -25 -7 -2 -8 13 -1 32 4 43 10 16 8 35 2 102 -37 82 -47 224 -150 305
-221 l44 -39 -18 -54 c-15 -44 -19 -50 -22 -30 -2 14 -6 32 -9 40 -3 8 -5 21
-4 28 1 7 -6 15 -16 19 -10 3 -55 23 -101 45 -202 94 -391 155 -617 199 -265
51 -800 55 -1180 9 -255 -31 -259 -32 -242 -45 9 -7 17 -18 17 -24 0 -8 -10
-4 -26 8 -27 21 -111 31 -99 12 3 -5 0 -13 -6 -16 -16 -11 27 -46 62 -50 17
-3 45 -10 63 -16 21 -8 47 -9 72 -4 21 5 44 7 49 5 13 -5 149 -19 235 -25 36
-3 101 -10 145 -15 44 -6 107 -12 140 -14 87 -5 244 -25 285 -35 19 -6 55 -13
80 -16 24 -4 51 -10 60 -15 8 -4 20 -8 25 -9 13 -1 114 -31 140 -41 61 -24
113 -40 132 -40 11 0 26 -7 33 -15 7 -9 19 -14 27 -11 8 3 32 -5 53 -19 22
-14 46 -25 54 -25 7 0 19 -7 26 -14 6 -8 28 -20 48 -27 20 -7 53 -20 72 -30
19 -11 43 -19 52 -19 10 0 18 -4 18 -10 0 -5 7 -10 15 -10 8 0 15 -4 15 -10 0
-5 8 -10 18 -10 11 0 32 -11 48 -25 16 -14 34 -25 41 -25 20 0 94 -42 100 -56
6 -17 65 -18 81 -2 9 9 12 9 12 -3 0 -15 -45 -196 -75 -304 -30 -106 -31 -98
22 -128 85 -49 312 -213 576 -417 60 -46 340 -275 375 -305 l34 -31 6 -147
c22 -486 -70 -915 -280 -1307 -28 -52 -56 -105 -62 -117 -7 -14 -40 -34 -96
-56 -47 -19 -191 -78 -321 -130 -129 -53 -276 -110 -325 -127 -119 -42 -320
-108 -365 -120 l-36 -10 -6 -175 c-3 -96 -9 -180 -12 -186 -4 -6 -12 -3 -21 8
-7 10 -14 14 -14 8 0 -5 -5 -3 -10 5 -5 8 -10 10 -10 4 0 -11 -16 -16 -155
-49 -136 -32 -151 -34 -225 -41 -41 -3 -85 -10 -97 -15 -22 -8 -258 -25 -328
-22 -54 1 -181 11 -285 22 -225 24 -296 34 -310 47 -8 7 -65 18 -125 24 -61 7
-114 15 -120 19 -18 11 -136 27 -141 19 -10 -16 -34 -8 -34 11 0 23 -22 40
-28 22 -3 -9 -7 -9 -18 0 -12 10 -17 8 -29 -7 -13 -18 -14 -18 -24 9 -6 15
-18 27 -26 27 -9 0 -13 -4 -10 -10 3 -5 -7 -13 -22 -16 -17 -5 -28 -3 -31 4
-2 7 -8 10 -13 6 -5 -3 -9 0 -9 7 0 8 -4 8 -15 -1 -21 -17 -19 -28 8 -35 12
-4 76 -33 142 -65 302 -148 631 -265 910 -325 44 -9 96 -22 115 -27 19 -6 50
-13 70 -15 19 -2 67 -7 105 -11 l70 -8 -60 -10 c-87 -13 -474 -10 -580 5 -131
19 -399 77 -480 105 -112 38 -277 105 -320 129 l-40 23 -3 350 -2 350 -43 16
c-75 29 -325 133 -622 258 -159 67 -333 139 -385 160 l-95 38 -36 83 c-223
518 -261 1149 -103 1698 60 205 185 481 294 648 50 77 56 83 94 87 91 11 745
78 946 98 120 11 220 25 226 32 6 6 18 38 28 71 16 56 70 231 167 540 48 152
86 266 91 269 13 9 175 38 278 51 214 26 280 28 466 15z m897 -233 c-5 -13
-16 -12 -21 2 -3 8 1 12 9 9 8 -3 13 -8 12 -11z m203 -108 c3 -5 -2 -9 -10 -9
-8 0 -17 4 -21 10 -3 5 -13 7 -23 4 -13 -5 -14 -4 -3 4 14 10 48 5 57 -9z
m-1812 -130 c-7 -12 -44 -12 -44 0 0 5 6 11 13 14 17 6 38 -3 31 -14z m221
-4340 c10 -15 -1 -23 -20 -15 -9 3 -13 10 -10 16 8 13 22 13 30 -1z"/>
<path d="M1891 4584 c0 -11 3 -14 6 -6 3 7 2 16 -1 19 -3 4 -6 -2 -5 -13z"/>
<path d="M1240 3911 c8 -5 70 -27 137 -50 249 -82 621 -252 768 -349 83 -56
201 -165 262 -244 107 -139 138 -299 83 -425 -24 -54 -7 -58 43 -10 72 68 96
203 56 319 -74 221 -305 397 -737 564 -298 115 -688 239 -612 195z"/>
<path d="M1397 3839 c7 -7 15 -10 18 -7 3 3 -2 9 -12 12 -14 6 -15 5 -6 -5z"/>
<path d="M1430 3826 c0 -2 46 -30 103 -62 122 -69 331 -208 407 -272 288 -240
371 -381 339 -570 -14 -80 -49 -177 -90 -251 -17 -29 -29 -54 -27 -56 2 -2 49
24 105 58 94 57 105 67 130 117 39 77 44 201 13 294 -33 101 -107 206 -225
320 -83 80 -237 177 -454 286 -76 39 -141 70 -145 70 -3 0 -38 16 -77 35 -74
36 -79 38 -79 31z"/>
<path d="M1325 3627 c38 -80 53 -146 63 -277 l8 -95 18 54 c36 104 1 251 -80
339 l-42 47 33 -68z"/>
<path d="M1100 3128 c-56 -29 -90 -78 -90 -130 0 -45 12 -71 48 -110 l25 -27
43 30 c66 45 158 85 252 110 l85 23 -38 33 c-100 87 -237 116 -325 71z"/>
<path d="M1494 2980 c-219 -47 -442 -167 -519 -281 -42 -61 -42 -121 -1 -154
56 -45 150 -56 251 -30 185 48 326 166 324 269 l0 41 -15 -47 c-34 -110 -221
-198 -420 -198 -123 0 -146 33 -71 104 79 76 308 170 492 202 68 13 124 15
230 10 l140 -6 62 32 c34 18 59 36 55 40 -4 4 -53 15 -107 23 -137 20 -308 18
-421 -5z"/>
<path d="M1280 2499 c-30 -5 -97 -30 -148 -54 -76 -38 -108 -61 -180 -133
-107 -105 -163 -183 -241 -333 -67 -132 -87 -186 -43 -118 16 25 37 55 45 65
138 170 181 215 282 296 156 123 315 179 426 148 43 -12 69 -56 69 -114 0 -41
-40 -153 -99 -278 -22 -48 -41 -90 -41 -92 0 -3 32 12 71 32 60 31 75 44 95
84 34 66 71 182 83 258 30 184 -96 278 -319 239z m204 -53 c36 -15 73 -57 82
-93 7 -27 -4 -118 -14 -109 -3 4 -7 27 -8 52 -2 54 -26 92 -75 116 -37 19
-115 23 -166 9 -25 -7 -31 -6 -26 4 12 33 146 47 207 21z"/>
<path d="M1894 2401 c-49 -12 -103 -50 -120 -83 -15 -29 -30 -112 -74 -393
-11 -77 -25 -162 -31 -188 -5 -26 -9 -50 -9 -53 0 -3 39 -3 87 -2 l87 3 20
126 19 126 131 9 131 9 9 58 c4 32 5 61 1 65 -3 4 -60 9 -126 11 -87 2 -119 6
-119 16 0 40 23 122 37 133 12 8 60 12 154 12 l137 0 11 66 c12 67 11 76 -12
80 -52 7 -308 11 -333 5z"/>
<path d="M2426 2396 c-51 -19 -92 -60 -111 -110 -21 -58 -86 -486 -78 -516 24
-93 95 -112 352 -93 105 7 107 8 117 97 l7 56 -131 0 c-72 0 -137 3 -146 6
-20 8 -23 106 -3 122 7 7 65 13 132 14 l119 3 13 60 c7 33 12 63 13 68 0 4
-28 7 -62 7 -35 0 -93 3 -130 7 -62 5 -67 8 -63 27 21 109 17 106 185 106 156
0 141 -9 155 92 6 36 4 49 -6 52 -8 2 -84 7 -169 10 -119 4 -164 2 -194 -8z"/>
<path d="M2981 2387 c-5 -12 -35 -115 -66 -227 -31 -113 -74 -266 -96 -340
-21 -74 -37 -135 -36 -137 5 -4 158 -6 162 -1 6 5 60 194 91 316 10 39 21 72
24 72 4 0 14 -78 24 -172 24 -244 12 -219 107 -216 l80 3 82 197 c45 109 86
198 90 198 4 0 5 -21 3 -47 -3 -27 -8 -117 -11 -201 l-7 -153 84 3 83 3 13
348 c8 191 11 354 8 362 -4 11 -23 15 -76 15 l-70 0 -33 -67 c-19 -38 -74
-155 -123 -262 -67 -147 -90 -189 -96 -175 -4 11 -21 123 -38 249 -17 127 -33
236 -35 243 -3 8 -28 12 -80 12 -69 0 -76 -2 -84 -23z"/>
<path d="M3977 2403 c-3 -5 -45 -96 -95 -203 -49 -107 -122 -264 -161 -349
-40 -84 -70 -159 -68 -165 3 -7 32 -10 85 -8 l80 3 27 65 28 65 116 -3 c94 -2
116 -6 118 -18 1 -8 5 -36 8 -62 l6 -48 91 0 c68 0 89 3 85 13 -2 6 -26 165
-52 352 -27 187 -53 346 -58 353 -10 13 -202 18 -210 5z m97 -278 c4 -55 9
-115 13 -132 l5 -33 -77 0 c-69 0 -76 2 -71 18 42 112 112 267 117 258 4 -6 9
-56 13 -111z"/>
<path d="M4397 2378 c-3 -18 -9 -54 -13 -80 l-6 -48 91 0 c84 0 91 -1 91 -20
0 -11 -15 -116 -34 -233 -19 -116 -37 -236 -41 -264 l-7 -53 85 0 84 0 23 148
c13 81 33 208 44 282 l22 135 94 5 95 5 12 70 c6 39 9 73 6 78 -2 4 -125 7
-272 7 l-269 0 -5 -32z"/>
<path d="M695 2243 c-113 -15 -399 -65 -418 -73 -15 -7 23 -9 123 -6 129 3
155 7 240 35 101 33 141 52 105 49 -11 0 -33 -3 -50 -5z"/>
<path d="M210 1942 c0 -23 58 -126 103 -183 50 -63 157 -138 231 -162 79 -27
167 -32 204 -13 18 9 32 20 32 24 0 4 -27 9 -59 10 -79 3 -200 35 -262 68 -74
41 -164 128 -209 202 -22 37 -40 61 -40 54z"/>
<path d="M1655 1541 c-9 -9 -5 -111 4 -111 5 0 11 10 13 22 2 14 13 25 28 29
l25 7 -27 1 c-21 1 -28 6 -28 21 0 16 7 20 30 20 17 0 30 5 30 10 0 10 -66 11
-75 1z"/>
<path d="M1775 1540 c-3 -5 -1 -10 4 -10 6 0 11 5 11 10 0 6 -2 10 -4 10 -3 0
-8 -4 -11 -10z"/>
<path d="M1910 1530 c0 -16 -7 -20 -30 -20 -24 0 -31 -5 -36 -27 -10 -37 7
-58 47 -58 l34 0 3 63 c2 38 -1 62 -8 62 -5 0 -10 -9 -10 -20z m0 -60 c0 -25
-4 -30 -25 -30 -20 0 -25 5 -25 23 0 28 7 37 32 37 13 0 18 -8 18 -30z"/>
<path d="M1995 1540 c-3 -5 -1 -10 4 -10 6 0 11 5 11 10 0 6 -2 10 -4 10 -3 0
-8 -4 -11 -10z"/>
<path d="M2872 1488 c3 -54 6 -63 23 -66 16 -3 18 -1 8 9 -7 7 -13 37 -13 66
0 30 -4 53 -10 53 -7 0 -10 -24 -8 -62z"/>
<path d="M2930 1540 c0 -5 5 -10 10 -10 6 0 10 5 10 10 0 6 -4 10 -10 10 -5 0
-10 -4 -10 -10z"/>
<path d="M3520 1530 c0 -14 -7 -20 -23 -20 -29 0 -47 -18 -47 -45 0 -30 19
-45 57 -45 l33 0 0 65 c0 37 -4 65 -10 65 -5 0 -10 -9 -10 -20z m-2 -63 c3
-23 0 -27 -22 -27 -21 0 -26 5 -26 23 0 13 3 27 7 31 15 14 38 0 41 -27z"/>
<path d="M3710 1540 c0 -5 7 -10 15 -10 11 0 15 -12 15 -49 0 -28 5 -53 10
-56 6 -4 10 15 10 49 0 50 2 56 21 56 11 0 17 5 14 10 -3 6 -24 10 -46 10 -21
0 -39 -4 -39 -10z"/>
<path d="M4010 1485 c0 -37 4 -65 10 -65 6 0 10 9 10 20 0 26 15 25 34 -2 9
-12 19 -19 22 -15 4 4 0 15 -9 25 -20 22 -22 39 -4 45 6 2 9 8 5 12 -5 5 -17
0 -28 -10 -20 -18 -20 -18 -20 18 0 21 -4 37 -10 37 -6 0 -10 -28 -10 -65z"/>
<path d="M4540 1530 c0 -16 -7 -20 -30 -20 -24 0 -31 -5 -36 -27 -10 -37 7
-58 47 -58 l34 0 3 63 c2 38 -1 62 -8 62 -5 0 -10 -9 -10 -20z m-2 -63 c3 -23
0 -27 -22 -27 -21 0 -26 5 -26 23 0 13 3 27 7 31 15 14 38 0 41 -27z"/>
<path d="M2228 1522 c-9 -35 6 -97 25 -100 9 -2 17 1 17 7 0 6 -4 11 -10 11
-12 0 -13 57 -1 62 4 2 0 11 -9 21 -17 17 -18 17 -22 -1z"/>
<path d="M2620 1480 c0 -33 4 -60 10 -60 6 0 10 19 10 43 l1 42 15 -27 c18
-34 27 -35 47 -5 16 22 16 21 16 -15 1 -21 6 -38 11 -38 6 0 10 27 10 60 0 68
-19 82 -40 30 -7 -16 -15 -30 -19 -30 -4 0 -15 14 -24 30 -27 45 -37 37 -37
-30z"/>
<path d="M1971 1504 c-25 -18 -27 -46 -5 -68 17 -18 64 -22 64 -6 0 6 -11 10
-24 10 -14 0 -28 5 -31 10 -4 6 8 10 29 10 35 0 45 12 28 36 -13 19 -39 23
-61 8z m44 -13 c3 -5 1 -13 -5 -16 -15 -9 -43 3 -35 15 8 13 32 13 40 1z"/>
<path d="M2145 1509 c-17 -7 -17 -8 8 -8 37 -1 34 -17 -4 -25 -25 -5 -30 -10
-27 -28 2 -19 10 -23 41 -25 37 -1 37 -1 37 38 0 43 -21 62 -55 48z m35 -58
c0 -11 -26 -22 -34 -14 -12 12 -5 23 14 23 11 0 20 -4 20 -9z"/>
<path d="M3003 1509 c-26 -9 -32 -56 -11 -77 15 -15 58 -16 58 -2 0 6 -11 10
-25 10 -14 0 -25 5 -25 10 0 6 14 10 30 10 23 0 30 4 30 20 0 25 -29 40 -57
29z m37 -24 c0 -8 -9 -15 -20 -15 -20 0 -26 11 -13 23 12 13 33 7 33 -8z"/>
<path d="M1742 1498 c-17 -17 -15 -43 4 -62 17 -18 64 -22 64 -6 0 6 -11 10
-25 10 -14 0 -25 5 -25 10 0 6 14 10 31 10 26 0 30 3 27 23 -2 16 -11 23 -33
25 -17 2 -36 -3 -43 -10z m58 -13 c0 -16 -35 -21 -44 -6 -8 12 4 21 26 21 10
0 18 -7 18 -15z"/>
<path d="M2060 1464 c0 -27 4 -43 10 -39 6 3 10 18 10 32 0 14 8 32 18 39 15
12 14 13 -10 14 -27 0 -28 -2 -28 -46z"/>
<path d="M2304 1494 c3 -9 6 -29 6 -45 0 -18 4 -28 10 -24 6 3 10 24 10 46 0
29 -4 39 -16 39 -11 0 -14 -5 -10 -16z"/>
<path d="M2361 1496 c-16 -19 -11 -56 10 -69 9 -5 28 -7 43 -3 24 6 27 11 24
44 -3 33 -6 37 -34 40 -18 2 -36 -3 -43 -12z m57 -30 c3 -24 0 -27 -20 -24
-26 3 -37 36 -16 49 20 13 33 5 36 -25z"/>
<path d="M2470 1464 c0 -27 4 -43 10 -39 6 3 10 22 10 41 0 27 4 34 20 34 16
0 20 -7 20 -34 0 -19 5 -38 10 -41 6 -4 10 12 10 39 l0 46 -40 0 -40 0 0 -46z"/>
<path d="M2795 1503 c30 -8 43 -23 19 -23 -11 0 -29 -6 -39 -14 -17 -12 -17
-16 -5 -30 8 -11 25 -16 44 -14 29 3 31 6 31 43 0 39 -1 40 -35 42 -19 1 -26
-1 -15 -4z m35 -53 c0 -5 -11 -10 -25 -10 -14 0 -25 5 -25 10 0 6 11 10 25 10
14 0 25 -4 25 -10z"/>
<path d="M2928 1470 c6 -56 22 -61 22 -6 0 31 -4 46 -13 46 -9 0 -11 -12 -9
-40z"/>
<path d="M3089 1508 c-7 -27 -8 -64 -3 -77 5 -11 9 -4 13 24 5 31 10 40 26 40
15 0 21 -8 23 -30 6 -51 24 -55 20 -5 -3 44 -4 45 -40 48 -21 2 -38 2 -39 0z"/>
<path d="M3200 1464 c0 -27 4 -43 10 -39 6 3 10 22 10 41 0 27 4 34 20 34 19
0 26 -19 21 -57 -1 -6 3 -14 9 -18 6 -4 10 11 10 39 l0 46 -40 0 -40 0 0 -46z"/>
<path d="M3317 1504 c-11 -12 -8 -59 5 -72 15 -15 58 -16 58 -2 0 6 -11 10
-25 10 -14 0 -25 5 -25 10 0 6 14 10 31 10 26 0 30 3 27 23 -2 16 -11 23 -33
25 -17 2 -34 0 -38 -4z m53 -19 c0 -8 -9 -15 -20 -15 -20 0 -26 11 -13 23 12
13 33 7 33 -8z"/>
<path d="M3571 1491 c-15 -27 -14 -37 5 -55 17 -18 64 -22 64 -6 0 6 -11 10
-25 10 -14 0 -25 5 -25 10 0 6 14 10 31 10 26 0 30 3 27 23 -4 31 -62 37 -77
8z m57 -8 c2 -8 -5 -13 -17 -13 -21 0 -35 13 -24 24 10 10 36 3 41 -11z"/>
<path d="M3825 1503 c31 -8 42 -23 18 -23 -12 0 -29 -7 -38 -16 -22 -23 -1
-46 39 -42 29 3 31 6 31 43 0 39 -1 40 -35 42 -19 1 -26 -1 -15 -4z m35 -52
c0 -5 -6 -11 -12 -14 -18 -6 -39 3 -32 14 7 12 44 12 44 0z"/>
<path d="M3910 1494 c-23 -27 -1 -68 38 -72 18 -2 32 1 32 7 0 6 -11 11 -24
11 -14 0 -28 5 -31 10 -4 6 8 10 29 10 36 0 41 5 30 34 -8 21 -58 21 -74 0z
m58 -11 c2 -8 -6 -13 -22 -13 -25 0 -33 10 -19 24 10 10 36 3 41 -11z"/>
<path d="M4110 1504 c0 -19 24 -84 31 -84 5 0 11 11 15 25 7 30 24 33 24 6 0
-35 20 -33 35 3 8 19 15 40 15 46 0 20 -16 9 -27 -17 l-10 -28 -8 28 c-9 34
-21 35 -29 2 -7 -29 -26 -24 -26 6 0 10 -4 19 -10 19 -5 0 -10 -3 -10 -6z"/>
<path d="M4252 1498 c-7 -7 -12 -21 -12 -33 0 -29 19 -45 52 -45 34 0 55 39
38 71 -12 22 -59 26 -78 7z m57 -12 c15 -18 3 -46 -19 -46 -24 0 -33 15 -25
40 7 23 28 26 44 6z"/>
<path d="M4360 1465 c0 -54 18 -60 22 -7 2 29 7 37 23 37 16 0 21 -8 23 -38 3
-40 22 -42 22 -2 0 44 -10 55 -51 55 l-39 0 0 -45z"/>
<path d="M4587 1504 c-11 -12 -8 -59 5 -72 16 -16 53 -15 67 2 7 8 11 27 9 43
-3 24 -8 28 -38 31 -20 2 -39 0 -43 -4z m61 -37 c3 -23 0 -27 -22 -27 -21 0
-26 5 -26 24 0 43 43 46 48 3z"/>
</g>
</svg>
